{
    "asset" : {
        "generator" : "Khronos glTF Blender I/O v0.9.29",
        "version" : "2.0"
    },
    "scene" : 0,
    "scenes" : [
        {
            "name" : "Scene",
            "nodes" : [
                0,
                1,
                2
            ]
        }
    ],
    "nodes" : [
        {
            "name" : "Light",
            "rotation" : [
                0.16907575726509094,
                0.7558803558349609,
                -0.27217137813568115,
                0.570947527885437
            ],
            "translation" : [
                4.076245307922363,
                5.903861999511719,
                -1.0054539442062378
            ]
        },
        {
            "name" : "Camera",
            "rotation" : [
                0.483536034822464,
                0.33687159419059753,
                -0.20870360732078552,
                0.7804827094078064
            ],
            "translation" : [
                7.358891487121582,
                4.958309173583984,
                6.925790786743164
            ]
        },
        {
            "mesh" : 0,
            "name" : "node-0",
            "rotation" : [
                0.7071068286895752,
                0,
                0,
                0.7071067094802856
            ],
            "translation" : [
                -0.28694212436676025,
                1.8846819400787354,
                -0.708899199962616
            ]
        }
    ],
    "materials" : [
        {
            "doubleSided" : true,
            "name" : "lambert2SG",
            "pbrMetallicRoughness" : {
                "baseColorFactor" : [
                    1,
                    0.6700000166893005,
                    0,
                    1
                ],
                "metallicFactor" : 0,
                "roughnessFactor" : 0.9699476361274719
            }
        },
        {
            "doubleSided" : true,
            "name" : "lambert4SG",
            "pbrMetallicRoughness" : {
                "baseColorFactor" : [
                    0.25,
                    0.14000000059604645,
                    0.029999999329447746,
                    1
                ],
                "metallicFactor" : 0,
                "roughnessFactor" : 0.9699476361274719
            }
        },
        {
            "doubleSided" : true,
            "name" : "lambert3SG",
            "pbrMetallicRoughness" : {
                "baseColorFactor" : [
                    0.10000000149011612,
                    0.33000001311302185,
                    0.10000000149011612,
                    1
                ],
                "metallicFactor" : 0,
                "roughnessFactor" : 0.9699476361274719
            }
        }
    ],
    "meshes" : [
        {
            "name" : "buffer-0-mesh-0",
            "primitives" : [
                {
                    "attributes" : {
                        "POSITION" : 0,
                        "NORMAL" : 1,
                        "TEXCOORD_0" : 2
                    },
                    "indices" : 3,
                    "material" : 0
                },
                {
                    "attributes" : {
                        "POSITION" : 4,
                        "NORMAL" : 5,
                        "TEXCOORD_0" : 6
                    },
                    "indices" : 7,
                    "material" : 1
                },
                {
                    "attributes" : {
                        "POSITION" : 8,
                        "NORMAL" : 9,
                        "TEXCOORD_0" : 10
                    },
                    "indices" : 11,
                    "material" : 2
                }
            ]
        }
    ],
    "accessors" : [
        {
            "bufferView" : 0,
            "componentType" : 5126,
            "count" : 17640,
            "max" : [
                0.5124809741973877,
                0.4965679943561554,
                0.15073099732398987
            ],
            "min" : [
                -0.5163099765777588,
                -0.5329999923706055,
                -0.3028300106525421
            ],
            "type" : "VEC3"
        },
        {
            "bufferView" : 1,
            "componentType" : 5126,
            "count" : 17640,
            "type" : "VEC3"
        },
        {
            "bufferView" : 2,
            "componentType" : 5126,
            "count" : 17640,
            "type" : "VEC2"
        },
        {
            "bufferView" : 3,
            "componentType" : 5123,
            "count" : 17640,
            "type" : "SCALAR"
        },
        {
            "bufferView" : 4,
            "componentType" : 5126,
            "count" : 336,
            "max" : [
                0.22389599680900574,
                0.22389599680900574,
                0.22389599680900574
            ],
            "min" : [
                -0.22389599680900574,
                -0.22389599680900574,
                -0.22389599680900574
            ],
            "type" : "VEC3"
        },
        {
            "bufferView" : 5,
            "componentType" : 5126,
            "count" : 336,
            "type" : "VEC3"
        },
        {
            "bufferView" : 6,
            "componentType" : 5126,
            "count" : 336,
            "type" : "VEC2"
        },
        {
            "bufferView" : 7,
            "componentType" : 5123,
            "count" : 336,
            "type" : "SCALAR"
        },
        {
            "bufferView" : 8,
            "componentType" : 5126,
            "count" : 648,
            "max" : [
                0.042385000735521317,
                0.042385000735521317,
                3.431735038757324
            ],
            "min" : [
                -0.042385000735521317,
                -0.042385000735521317,
                0.17600899934768677
            ],
            "type" : "VEC3"
        },
        {
            "bufferView" : 9,
            "componentType" : 5126,
            "count" : 648,
            "type" : "VEC3"
        },
        {
            "bufferView" : 10,
            "componentType" : 5126,
            "count" : 648,
            "type" : "VEC2"
        },
        {
            "bufferView" : 11,
            "componentType" : 5123,
            "count" : 648,
            "type" : "SCALAR"
        }
    ],
    "bufferViews" : [
        {
            "buffer" : 0,
            "byteLength" : 211680,
            "byteOffset" : 0
        },
        {
            "buffer" : 0,
            "byteLength" : 211680,
            "byteOffset" : 211680
        },
        {
            "buffer" : 0,
            "byteLength" : 141120,
            "byteOffset" : 423360
        },
        {
            "buffer" : 0,
            "byteLength" : 35280,
            "byteOffset" : 564480
        },
        {
            "buffer" : 0,
            "byteLength" : 4032,
            "byteOffset" : 599760
        },
        {
            "buffer" : 0,
            "byteLength" : 4032,
            "byteOffset" : 603792
        },
        {
            "buffer" : 0,
            "byteLength" : 2688,
            "byteOffset" : 607824
        },
        {
            "buffer" : 0,
            "byteLength" : 672,
            "byteOffset" : 610512
        },
        {
            "buffer" : 0,
            "byteLength" : 7776,
            "byteOffset" : 611184
        },
        {
            "buffer" : 0,
            "byteLength" : 7776,
            "byteOffset" : 618960
        },
        {
            "buffer" : 0,
            "byteLength" : 5184,
            "byteOffset" : 626736
        },
        {
            "buffer" : 0,
            "byteLength" : 1296,
            "byteOffset" : 631920
        }
    ],
    "buffers" : [
        {
            "byteLength" : 633216,
            "uri" : "data:application/octet-stream;base64,"
        }
    ]
}
