{
    "asset" : {
        "generator" : "Khronos glTF Blender I/O v0.9.29",
        "version" : "2.0"
    },
    "scene" : 0,
    "scenes" : [
        {
            "name" : "Scene",
            "nodes" : [
                0,
                1,
                2
            ]
        }
    ],
    "nodes" : [
        {
            "mesh" : 0,
            "name" : "Cylinder",
            "rotation" : [
                0.6447900533676147,
                0.2902511656284332,
                -0.29025113582611084,
                0.6447901129722595
            ],
            "scale" : [
                0.7256597280502319,
                0.7256597280502319,
                0.7256597280502319
            ],
            "translation" : [
                3.4194555282592773,
                -0.0452842116355896,
                5.570126533508301
            ]
        },
        {
            "name" : "Lamp",
            "rotation" : [
                0.16907575726509094,
                0.7558803558349609,
                -0.27217137813568115,
                0.570947527885437
            ],
            "translation" : [
                -0.3597872257232666,
                3.657590389251709,
                2.8666586875915527
            ]
        },
        {
            "name" : "Camera",
            "rotation" : [
                0.483536034822464,
                0.33687159419059753,
                -0.20870360732078552,
                0.7804827094078064
            ],
            "translation" : [
                7.481131553649902,
                5.34366512298584,
                6.5076398849487305
            ]
        }
    ],
    "materials" : [
        {
            "doubleSided" : true,
            "name" : "Material.003",
            "pbrMetallicRoughness" : {}
        }
    ],
    "meshes" : [
        {
            "name" : "Cylinder",
            "primitives" : [
                {
                    "attributes" : {
                        "POSITION" : 0,
                        "NORMAL" : 1
                    },
                    "indices" : 2,
                    "material" : 0
                }
            ]
        }
    ],
    "accessors" : [
        {
            "bufferView" : 0,
            "componentType" : 5126,
            "count" : 385,
            "max" : [
                3.0652387142181396,
                6.552450656890869,
                1
            ],
            "min" : [
                -1.0291719436645508,
                -5.496062755584717,
                -1.0000001192092896
            ],
            "type" : "VEC3"
        },
        {
            "bufferView" : 1,
            "componentType" : 5126,
            "count" : 385,
            "type" : "VEC3"
        },
        {
            "bufferView" : 2,
            "componentType" : 5123,
            "count" : 2298,
            "type" : "SCALAR"
        }
    ],
    "bufferViews" : [
        {
            "buffer" : 0,
            "byteLength" : 4620,
            "byteOffset" : 0
        },
        {
            "buffer" : 0,
            "byteLength" : 4620,
            "byteOffset" : 4620
        },
        {
            "buffer" : 0,
            "byteLength" : 4596,
            "byteOffset" : 9240
        }
    ],
    "buffers" : [
        {
            "byteLength" : 13836,
            "uri" : "data:application/octet-stream;base64,"
        }
    ]
}
