{
    "asset" : {
        "generator" : "Khronos glTF Blender I/O v0.9.29",
        "version" : "2.0"
    },
    "scene" : 0,
    "scenes" : [
        {
            "name" : "Scene",
            "nodes" : [
                0,
                1,
                2,
                3,
                4,
                5
            ]
        }
    ],
    "nodes" : [
        {
            "name" : "Light",
            "rotation" : [
                0.16907575726509094,
                0.7558803558349609,
                -0.27217137813568115,
                0.570947527885437
            ],
            "translation" : [
                1.7045958042144775,
                5.4011945724487305,
                2.763336181640625
            ]
        },
        {
            "name" : "Camera",
            "rotation" : [
                0.483536034822464,
                0.33687159419059753,
                -0.20870360732078552,
                0.7804827094078064
            ],
            "translation" : [
                7.358891487121582,
                4.958309173583984,
                6.925790786743164
            ]
        },
        {
            "name" : "Empty",
            "rotation" : [
                0.7071068286895752,
                0,
                0,
                0.7071067094802856
            ]
        },
        {
            "name" : "Empty.001",
            "rotation" : [
                0.5,
                0.5,
                -0.5,
                0.4999999701976776
            ],
            "translation" : [
                -1.6987340450286865,
                0,
                0
            ]
        },
        {
            "mesh" : 0,
            "name" : "Cone",
            "translation" : [
                -0.004011410754173994,
                -0.2767985165119171,
                -0.03954263776540756
            ]
        },
        {
            "name" : "Light.001",
            "rotation" : [
                0.16907575726509094,
                0.7558803558349609,
                -0.27217137813568115,
                0.570947527885437
            ],
            "translation" : [
                1.7297956943511963,
                5.083481788635254,
                -5.698195457458496
            ]
        }
    ],
    "materials" : [
        {
            "doubleSided" : true,
            "name" : "Material.002",
            "pbrMetallicRoughness" : {
                "baseColorFactor" : [
                    0.8000000715255737,
                    0.04337796941399574,
                    0.6200489401817322,
                    1
                ],
                "metallicFactor" : 0,
                "roughnessFactor" : 0.5
            }
        }
    ],
    "meshes" : [
        {
            "name" : "Cone",
            "primitives" : [
                {
                    "attributes" : {
                        "POSITION" : 0,
                        "NORMAL" : 1,
                        "TEXCOORD_0" : 2
                    },
                    "indices" : 3,
                    "material" : 0
                }
            ]
        }
    ],
    "accessors" : [
        {
            "bufferView" : 0,
            "componentType" : 5126,
            "count" : 1672,
            "max" : [
                1.3760960102081299,
                1.850914716720581,
                0.594720184803009
            ],
            "min" : [
                -1.469985008239746,
                -0.5655809640884399,
                -0.6306332349777222
            ],
            "type" : "VEC3"
        },
        {
            "bufferView" : 1,
            "componentType" : 5126,
            "count" : 1672,
            "type" : "VEC3"
        },
        {
            "bufferView" : 2,
            "componentType" : 5126,
            "count" : 1672,
            "type" : "VEC2"
        },
        {
            "bufferView" : 3,
            "componentType" : 5123,
            "count" : 2502,
            "type" : "SCALAR"
        }
    ],
    "bufferViews" : [
        {
            "buffer" : 0,
            "byteLength" : 20064,
            "byteOffset" : 0
        },
        {
            "buffer" : 0,
            "byteLength" : 20064,
            "byteOffset" : 20064
        },
        {
            "buffer" : 0,
            "byteLength" : 13376,
            "byteOffset" : 40128
        },
        {
            "buffer" : 0,
            "byteLength" : 5004,
            "byteOffset" : 53504
        }
    ],
    "buffers" : [
        {
            "byteLength" : 58508,
            "uri" : "data:application/octet-stream;base64,"
        }
    ]
}
